#!OML:ASF I:\Actors\actors\Patient Classification 1\Patient 1\Session 1\Subject1.ASF
:FULLY-SPECIFIED
:DEGREES
198
root 0.611654 17.5604 9.78995 12.44 -17.9951 -9.0642
lowerback -1.79448 -1.94358 7.62993
upperback -9.34849 -2.16296 4.25662
thorax -9.04437 -1.50226 0.421198
lowerneck 1.08932 -2.62422 -2.52961
upperneck 17.7799 -4.48529 5.43067
head 5.33779 -2.09848 1.92057
rclavicle -5.33737e-014 5.48646e-014
rhumerus 33.0599 -3.55768 -18.3511
rradius 117.783
rwrist -54.4806
rhand 21.3663 -58.6942
rfingers 7.12502
rthumb 45.8057 -441.869
lclavicle -5.33737e-014 5.48646e-014
lhumerus 42.1366 -6.4741 39.1355
lradius 107.844
lwrist 80.1176
lhand -12.1476 21.7135
lfingers 7.12502
lthumb 13.9148 51.2279
rfemur -11.1659 25.8669 23.0614
rtibia 9.61033
rfoot -11.0888 -9.15461
rtoes -6.0321
lfemur 15.4391 -48.9957 -23.3142
ltibia -4.8415
lfoot -63.1928 59.504
ltoes 33.2894
199
root 0.605574 17.5656 9.79296 12.2588 -17.4952 -9.0801
lowerback -1.78336 -1.81511 7.72625
upperback -9.33631 -1.9923 4.11103
thorax -9.03851 -1.43059 0.201475
lowerneck 1.23774 -2.58738 -2.61963
upperneck 17.892 -4.49896 5.8208
head 5.35726 -2.08823 2.0601
rclavicle -4.44284e-014 5.1684e-015
rhumerus 33.4146 -5.39117 -15.9884
rradius 116.772
rwrist -55.495
rhand 22.7227 -57.4738
rfingers 7.12502
rthumb 47.0625 -440.112
lclavicle -4.44284e-014 5.1684e-015
lhumerus 43.5346 -4.32063 36.9149
lradius 107.044
lwrist 81.3525
lhand -12.8471 22.2305
lfingers 7.12502
lthumb 13.2406 51.79
rfemur -10.8287 25.7599 23.2704
rtibia 9.50898
rfoot -11.1366 -9.55158
rtoes -6.13989
lfemur 15.3011 -48.638 -22.9918
ltibia -4.86336
lfoot -61.2361 59.6316
ltoes 32.2255
200
root 0.600235 17.5705 9.79507 12.1083 -16.9445 -9.02979
lowerback -1.80651 -1.67389 7.79955
upperback -9.30467 -1.81277 3.92373
thorax -8.9884 -1.35327 -0.0532356
lowerneck 1.29888 -2.60597 -2.55988
upperneck 17.9829 -4.55006 5.95304
head 5.37889 -2.09999 2.09054
rclavicle 4.85035e-014 -4.92986e-014
rhumerus 33.5065 -7.12282 -13.5497
rradius 115.817
rwrist -56.3308
rhand 23.8232 -56.1388
rfingers 7.12502
rthumb 48.0786 -438.315
lclavicle 4.85035e-014 -4.92986e-014
lhumerus 44.8925 -2.07791 34.7978
lradius 106.389
lwrist 82.497
lhand -12.9014 22.8415
lfingers 7.12502
lthumb 13.1882 52.4043
rfemur -10.5586 25.6264 23.3713
rtibia 9.39903
rfoot -11.207 -9.95482
rtoes -5.99377
lfemur 14.9641 -48.1379 -22.57
ltibia -4.87243
lfoot -58.5544 59.8577
ltoes 30.6453
201
root 0.594601 17.5753 9.79601 11.9163 -16.3962 -8.90307
lowerback -1.771 -1.53881 7.77972
upperback -9.26051 -1.63827 3.7428
thorax -8.95226 -1.27072 -0.247903
lowerneck 1.32654 -2.57373 -2.48741
upperneck 18.1598 -4.51652 5.96111
head 5.42653 -2.07486 2.08335
rclavicle -1.49089e-016 -7.67309e-014
rhumerus 33.4742 -8.86844 -11.1563
rradius 115.117
rwrist -57.0382
rhand 24.3027 -55.3439
rfingers 7.12502
rthumb 48.5202 -437.31
lclavicle -1.49089e-016 -7.67309e-014
lhumerus 45.9948 0.304142 32.7153
lradius 105.904
lwrist 83.6682
lhand -12.2941 23.4906
lfingers 7.12502
lthumb 13.7735 53.0147
rfemur -10.2678 25.5034 23.3939
rtibia 9.30367
rfoot -11.2956 -10.3606
rtoes -5.7194
lfemur 14.67 -47.7121 -22.2855
ltibia -4.84371
lfoot -56.1756 59.9019
ltoes 29.348
202
root 0.587351 17.5792 9.79726 11.7366 -15.8309 -8.84317
lowerback -1.71473 -1.45538 7.75275
upperback -9.22415 -1.52597 3.64234
thorax -8.9382 -1.2153 -0.347534
lowerneck 1.34372 -2.51118 -2.49647
upperneck 18.4391 -4.44938 5.99293
head 5.5085 -2.03596 2.09891
rclavicle -1.83379e-014 1.98785e-015
rhumerus 33.3806 -10.4184 -8.86639
rradius 114.602
rwrist -57.2473
rhand 24.3485 -54.5126
rfingers 7.12502
rthumb 48.5623 -436.459
lclavicle -1.83379e-014 1.98785e-015
lhumerus 46.685 2.68741 30.6778
lradius 105.556
lwrist 84.5717
lhand -11.1562 23.925
lfingers 7.12502
lthumb 14.8701 53.3713
rfemur -9.97341 25.4505 23.5079
rtibia 9.25438
rfoot -11.4058 -10.8296
rtoes -5.4796
lfemur 14.6261 -47.7318 -22.161
ltibia -4.83273
lfoot -55.1566 59.7739
ltoes 28.8639
203
root 0.57915 17.5826 9.79849 11.632 -15.249 -8.85329
lowerback -1.6948 -1.3979 7.75051
upperback -9.18476 -1.45001 3.57812
thorax -8.90201 -1.1776 -0.42112
lowerneck 1.27583 -2.45466 -2.56464
upperneck 18.7884 -4.4148 6.16019
head 5.63207 -2.0061 2.16476
rclavicle -3.85145e-014 4.8901e-014
rhumerus 33.1371 -11.6961 -6.65834
rradius 114.126
rwrist -56.8291
rhand 24.4899 -52.9806
rfingers 7.12502
rthumb 48.6924 -434.864
lclavicle -3.85145e-014 4.8901e-014
lhumerus 47.2159 5.00698 28.6304
lradius 105.357
lwrist 85.1377
lhand -10.1798 23.9898
lfingers 7.12502
lthumb 15.8105 53.3642
rfemur -9.7895 25.3434 23.6745
rtibia 9.27677
rfoot -11.5298 -11.274
rtoes -5.38308
lfemur 14.6128 -48.0125 -22.0012
ltibia -4.83243
lfoot -54.8515 59.5693
ltoes 28.8375
204
root 0.57227 17.585 9.79897 11.5472 -14.6488 -8.88185
lowerback -1.61548 -1.31342 7.84775
upperback -9.11074 -1.33348 3.4555
thorax -8.86535 -1.12914 -0.613528
lowerneck 0.975048 -2.41667 -2.56698
upperneck 19.2785 -4.4237 6.37485
head 5.84179 -1.98255 2.23006
rclavicle 1.19271e-014 4.59193e-014
rhumerus 32.7137 -13.2044 -4.82348
rradius 114.014
rwrist -56.7662
rhand 24.6358 -52.6694
rfingers 7.12502
rthumb 48.8265 -434.487
lclavicle 1.19271e-014 4.59193e-014
lhumerus 47.7079 7.24185 26.6662
lradius 105.503
lwrist 85.2542
lhand -9.69882 24.0811
lfingers 7.12502
lthumb 16.2737 53.4181
rfemur -9.61236 25.1516 23.8494
rtibia 9.26404
rfoot -11.6059 -11.6706
rtoes -5.33993
lfemur 14.4005 -47.9975 -21.6428
ltibia -4.80814
lfoot -53.7032 59.4
ltoes 28.36
205
root 0.56558 17.587 9.79971 11.432 -14.0675 -8.92456
lowerback -1.47939 -1.24284 7.95201
upperback -9.02236 -1.22935 3.34276
thorax -8.84644 -1.08681 -0.797328
lowerneck 0.604188 -2.37556 -2.46426
upperneck 19.829 -4.39519 6.34264
head 6.07557 -1.94634 2.20088
rclavicle 2.05245e-014 1.8487e-014
rhumerus 32.1713 -14.5571 -3.21298
rradius 114.053
rwrist -56.1621
rhand 24.8425 -51.7736
rfingers 7.12502
rthumb 49.0165 -433.498
lclavicle 2.05245e-014 1.8487e-014
lhumerus 47.9314 9.44198 24.869
lradius 106.029
lwrist 84.8809
lhand -9.29707 24.4146
lfingers 7.12502
lthumb 16.6605 53.7196
rfemur -9.35951 24.9807 24.0562
rtibia 9.20302
rfoot -11.7037 -12.023
rtoes -4.95372
lfemur 14.2774 -47.8977 -21.3432
ltibia -4.8232
lfoot -51.9505 59.5316
ltoes 27.1504
206
root 0.557415 17.5902 9.80077 11.2941 -13.554 -8.94875
lowerback -1.38025 -1.23705 7.9034
upperback -8.97546 -1.21433 3.31707
thorax -8.84952 -1.07466 -0.798133
lowerneck 0.629661 -2.25668 -2.5211
upperneck 20.1924 -4.25915 6.39686
head 6.18192 -1.87493 2.23739
rclavicle 1.39398e-014 1.39149e-015
rhumerus 31.9093 -16.1549 -2.14615
rradius 114.531
rwrist -56.686
rhand 24.9183 -52.5602
rfingers 7.12502
rthumb 49.0862 -434.25
lclavicle 1.39398e-014 1.39149e-015
lhumerus 47.7482 11.6094 23.2824
lradius 106.758
lwrist 84.5241
lhand -8.54123 24.792
lfingers 7.12502
lthumb 17.388 54.0343
rfemur -9.11325 24.822 24.2444
rtibia 9.16188
rfoot -11.816 -12.3174
rtoes -4.56956
lfemur 14.3828 -48.0739 -21.274
ltibia -4.87575
lfoot -50.8427 59.7782
ltoes 26.1524
207
root 0.55079 17.5928 9.80104 11.204 -13.0664 -8.95337
lowerback -1.32087 -1.24305 7.84022
upperback -8.9587 -1.21908 3.28525
thorax -8.86388 -1.07265 -0.796004
lowerneck 0.857487 -2.12893 -2.66108
upperneck 20.4324 -4.14601 6.69606
head 6.22076 -1.81047 2.36787
rclavicle 2.31087e-014 2.42517e-014
rhumerus 31.5522 -17.3192 -1.00692
rradius 114.893
rwrist -56.1307
rhand 24.902 -51.253
rfingers 7.12502
rthumb 49.0712 -432.95
lclavicle 2.31087e-014 2.42517e-014
lhumerus 47.3107 13.7193 21.9734
lradius 107.692
lwrist 84.6094
lhand -7.68817 24.874
lfingers 7.12502
lthumb 18.2089 54.0417
rfemur -8.96166 24.6481 24.3725
rtibia 9.14247
rfoot -11.866 -12.5902
rtoes -4.37363
lfemur 14.4345 -48.4262 -21.2253
ltibia -4.87431
lfoot -50.4829 59.8278
ltoes 25.9107
